HIERARCHY
ROOT Hips
{
	OFFSET 0.000000 87.230942 0.000000
	CHANNELS 6 Xposition Yposition Zposition Xrotation Yrotation Zrotation
	JOINT Pelvis
	{
		OFFSET 0.000000 0.000000 0.000000
		CHANNELS 3 Xrotation Yrotation Zrotation
		JOINT LeftUpLeg
		{
			OFFSET 12.017000 -9.376404 -2.439400
			CHANNELS 3 Xrotation Yrotation Zrotation
			JOINT LeftLeg
			{
				OFFSET -0.007312 -32.846973 2.110600
				CHANNELS 3 Xrotation Yrotation Zrotation
				JOINT LeftFoot
				{
					OFFSET 0.007312 -32.065170 -0.570400
					CHANNELS 3 Xrotation Yrotation Zrotation
					JOINT LeftToeBase
					{
						OFFSET 0.728300 -11.045900 13.180700
						CHANNELS 3 Xrotation Yrotation Zrotation
						End Site
						{
							OFFSET 0.000000 17.212589 0.000000
						}
					}
				}
				JOINT LeftPantLeg
				{
					OFFSET 0.002788 -16.709013 -3.143600
					CHANNELS 3 Xrotation Yrotation Zrotation
					End Site
					{
						OFFSET -0.605125 24.528742 0.000000
					}
				}
			}
			JOINT Left_Butt
			{
				OFFSET -6.630234 1.326584 -3.183700
				CHANNELS 3 Xrotation Yrotation Zrotation
				End Site
				{
					OFFSET -0.498041 20.188049 0.000000
				}
			}
		}
		JOINT RightUpLeg
		{
			OFFSET -11.717000 -9.376404 -2.439400
			CHANNELS 3 Xrotation Yrotation Zrotation
			JOINT RightLeg
			{
				OFFSET -0.003241 -32.846912 2.110600
				CHANNELS 3 Xrotation Yrotation Zrotation
				JOINT RightFoot
				{
					OFFSET 0.003241 -32.065136 -0.570500
					CHANNELS 3 Xrotation Yrotation Zrotation
					JOINT RightToeBase
					{
						OFFSET -0.728300 -11.045901 13.180700
						CHANNELS 3 Xrotation Yrotation Zrotation
						End Site
						{
							OFFSET 0.000000 17.212593 0.000000
						}
					}
				}
				JOINT RightPantLeg
				{
					OFFSET 0.008142 -16.708982 -3.143700
					CHANNELS 3 Xrotation Yrotation Zrotation
					End Site
					{
						OFFSET 0.605088 24.528715 0.000000
					}
				}
			}
			JOINT Right_Butt
			{
				OFFSET 6.630732 1.326584 -3.183700
				CHANNELS 3 Xrotation Yrotation Zrotation
				End Site
				{
					OFFSET 0.498015 20.188240 0.000000
				}
			}
		}
	}
	JOINT Spine
	{
		OFFSET -0.062400 7.848404 3.918300
		CHANNELS 3 Xrotation Yrotation Zrotation
		JOINT Spine1
		{
			OFFSET -0.072800 11.422302 0.713400
			CHANNELS 3 Xrotation Yrotation Zrotation
			JOINT Spine2
			{
				OFFSET -0.083200 13.054001 -1.931600
				CHANNELS 3 Xrotation Yrotation Zrotation
				JOINT Neck
				{
					OFFSET -0.092200 14.121796 -5.138800
					CHANNELS 3 Xrotation Yrotation Zrotation
					JOINT Head
					{
						OFFSET 0.000200 10.447403 -0.842000
						CHANNELS 3 Xrotation Yrotation Zrotation
						JOINT Visor
						{
							OFFSET 0.457100 25.671204 16.550400
							CHANNELS 3 Xrotation Yrotation Zrotation
							End Site
							{
								OFFSET 0.000000 26.061493 0.000000
							}
						}
						JOINT HairMidA
						{
							OFFSET 0.459400 31.585403 8.437400
							CHANNELS 3 Xrotation Yrotation Zrotation
							End Site
							{
								OFFSET 0.000000 26.061493 0.000000
							}
						}
						JOINT HairMidB
						{
							OFFSET 0.464000 33.309204 -8.389700
							CHANNELS 3 Xrotation Yrotation Zrotation
							End Site
							{
								OFFSET 0.000000 26.061493 0.000000
							}
						}
						JOINT HairMidC
						{
							OFFSET 0.466600 27.991196 -17.375099
							CHANNELS 3 Xrotation Yrotation Zrotation
							End Site
							{
								OFFSET 0.000000 26.061493 0.000000
							}
						}
						JOINT HairMidD
						{
							OFFSET 0.467700 17.888092 -21.169500
							CHANNELS 3 Xrotation Yrotation Zrotation
							End Site
							{
								OFFSET 0.000000 26.061493 0.000000
							}
						}
						JOINT HairMidE
						{
							OFFSET 5.325700 3.514603 -14.369699
							CHANNELS 3 Xrotation Yrotation Zrotation
							End Site
							{
								OFFSET 0.000000 26.061493 0.000000
							}
						}
						JOINT HairMidF
						{
							OFFSET -4.394100 3.514603 -14.372400
							CHANNELS 3 Xrotation Yrotation Zrotation
							End Site
							{
								OFFSET 0.000000 26.061493 0.000000
							}
						}
						JOINT HairLeftA
						{
							OFFSET 15.319900 25.746506 2.623300
							CHANNELS 3 Xrotation Yrotation Zrotation
							End Site
							{
								OFFSET 0.000000 26.061493 0.000000
							}
						}
						JOINT HairLeftB
						{
							OFFSET 12.619500 29.289398 -8.731499
							CHANNELS 3 Xrotation Yrotation Zrotation
							End Site
							{
								OFFSET 0.000000 26.061493 0.000000
							}
						}
						JOINT HairLeftC
						{
							OFFSET 15.714800 15.959900 2.909800
							CHANNELS 3 Xrotation Yrotation Zrotation
							End Site
							{
								OFFSET 0.000000 26.061493 0.000000
							}
						}
						JOINT HairLeftD
						{
							OFFSET 16.101700 18.437408 -7.553200
							CHANNELS 3 Xrotation Yrotation Zrotation
							End Site
							{
								OFFSET 0.000000 26.061493 0.000000
							}
						}
						JOINT HairLeftE
						{
							OFFSET 9.731900 17.915009 -18.316799
							CHANNELS 3 Xrotation Yrotation Zrotation
							End Site
							{
								OFFSET 0.000000 26.061493 0.000000
							}
						}
						JOINT HairLeftF
						{
							OFFSET 11.204300 4.953598 -9.668100
							CHANNELS 3 Xrotation Yrotation Zrotation
							End Site
							{
								OFFSET 0.000000 26.061493 0.000000
							}
						}
						JOINT HairRightA
						{
							OFFSET -14.397900 25.746307 2.615100
							CHANNELS 3 Xrotation Yrotation Zrotation
							End Site
							{
								OFFSET 0.000000 26.061493 0.000000
							}
						}
						JOINT HairRightB
						{
							OFFSET -11.691200 29.289200 -8.738199
							CHANNELS 3 Xrotation Yrotation Zrotation
							End Site
							{
								OFFSET 0.000000 26.061493 0.000000
							}
						}
						JOINT HairRightC
						{
							OFFSET -14.792900 15.959702 2.901400
							CHANNELS 3 Xrotation Yrotation Zrotation
							End Site
							{
								OFFSET 0.000000 26.061493 0.000000
							}
						}
						JOINT HairRightD
						{
							OFFSET -15.174000 18.437195 -7.561900
							CHANNELS 3 Xrotation Yrotation Zrotation
							End Site
							{
								OFFSET 0.000000 26.061493 0.000000
							}
						}
						JOINT HairRightE
						{
							OFFSET -8.798200 17.914902 -18.322001
							CHANNELS 3 Xrotation Yrotation Zrotation
							End Site
							{
								OFFSET 0.000000 26.061493 0.000000
							}
						}
						JOINT HairRightF
						{
							OFFSET -10.275200 4.953506 -9.674099
							CHANNELS 3 Xrotation Yrotation Zrotation
							End Site
							{
								OFFSET 0.000000 26.061493 0.000000
							}
						}
					}
				}
				JOINT LeftShoulder
				{
					OFFSET 5.133500 7.341202 -1.867600
					CHANNELS 3 Xrotation Yrotation Zrotation
					JOINT LeftArm
					{
						OFFSET 8.072663 0.936867 -2.176600
						CHANNELS 3 Xrotation Yrotation Zrotation
						JOINT LeftForeArm
						{
							OFFSET 31.271999 0.000000 0.000000
							CHANNELS 3 Xrotation Yrotation Zrotation
							JOINT LeftHand
							{
								OFFSET 31.771030 0.000000 0.000000
								CHANNELS 3 Xrotation Yrotation Zrotation
								JOINT LeftHandThumb1
								{
									OFFSET 2.886520 -2.557846 4.416640
									CHANNELS 3 Xrotation Yrotation Zrotation
									JOINT LeftHandThumb2
									{
										OFFSET 2.371025 -1.368912 1.368911
										CHANNELS 3 Xrotation Yrotation Zrotation
										JOINT LeftHandThumb3
										{
											OFFSET 2.243378 -1.295212 1.295213
											CHANNELS 3 Xrotation Yrotation Zrotation
											End Site
											{
												OFFSET -0.332611 2.876945 0.020015
											}
										}
									}
								}
								JOINT LeftHandIndex1
								{
									OFFSET 8.568985 -0.641945 3.119977
									CHANNELS 3 Xrotation Yrotation Zrotation
									JOINT LeftHandIndex2
									{
										OFFSET 3.348503 0.000000 0.000000
										CHANNELS 3 Xrotation Yrotation Zrotation
										JOINT LeftHandIndex3
										{
											OFFSET 3.314552 0.000000 0.000000
											CHANNELS 3 Xrotation Yrotation Zrotation
											End Site
											{
												OFFSET -1.032898 3.075485 0.678796
											}
										}
									}
								}
								JOINT LeftHandMiddle1
								{
									OFFSET 8.124603 0.000000 0.000000
									CHANNELS 3 Xrotation Yrotation Zrotation
									JOINT LeftHandMiddle2
									{
										OFFSET 4.166275 0.000000 0.000000
										CHANNELS 3 Xrotation Yrotation Zrotation
										JOINT LeftHandMiddle3
										{
											OFFSET 3.018135 0.000000 0.000000
											CHANNELS 3 Xrotation Yrotation Zrotation
											End Site
											{
												OFFSET -1.032700 2.767982 0.617226
											}
										}
									}
								}
								JOINT LeftHandRing1
								{
									OFFSET 8.571686 -0.031357 -2.884048
									CHANNELS 3 Xrotation Yrotation Zrotation
									JOINT LeftHandRing2
									{
										OFFSET 3.671181 0.000000 0.000000
										CHANNELS 3 Xrotation Yrotation Zrotation
										JOINT LeftHandRing3
										{
											OFFSET 2.728851 0.000000 0.000000
											CHANNELS 3 Xrotation Yrotation Zrotation
											End Site
											{
												OFFSET -0.815796 2.539223 0.577389
											}
										}
									}
								}
								JOINT LeftHandPinky1
								{
									OFFSET 7.854515 -0.675232 -5.213020
									CHANNELS 3 Xrotation Yrotation Zrotation
									JOINT LeftHandPinky2
									{
										OFFSET 3.068596 0.000000 0.000000
										CHANNELS 3 Xrotation Yrotation Zrotation
										JOINT LeftHandPinky3
										{
											OFFSET 2.396042 0.000000 0.000000
											CHANNELS 3 Xrotation Yrotation Zrotation
											End Site
											{
												OFFSET -0.524597 2.267998 0.567429
											}
										}
									}
								}
							}
							JOINT LeftSleeve
							{
								OFFSET 19.684509 -0.200119 0.476146
								CHANNELS 3 Xrotation Yrotation Zrotation
								End Site
								{
									OFFSET -0.031017 25.731133 -0.002868
								}
							}
						}
					}
				}
				JOINT RightShoulder
				{
					OFFSET -4.395900 7.341202 -1.870200
					CHANNELS 3 Xrotation Yrotation Zrotation
					JOINT RightArm
					{
						OFFSET -8.071453 0.936867 -2.181100
						CHANNELS 3 Xrotation Yrotation Zrotation
						JOINT RightForeArm
						{
							OFFSET -31.272011 0.000000 0.000000
							CHANNELS 3 Xrotation Yrotation Zrotation
							JOINT RightHand
							{
								OFFSET -31.771019 0.000000 0.000000
								CHANNELS 3 Xrotation Yrotation Zrotation
								JOINT RightHandThumb1
								{
									OFFSET -2.886520 -2.557808 4.416626
									CHANNELS 3 Xrotation Yrotation Zrotation
									JOINT RightHandThumb2
									{
										OFFSET -2.371056 -1.368927 1.368928
										CHANNELS 3 Xrotation Yrotation Zrotation
										JOINT RightHandThumb3
										{
											OFFSET -2.243362 -1.295204 1.295206
											CHANNELS 3 Xrotation Yrotation Zrotation
											End Site
											{
												OFFSET 0.332642 2.876938 0.020047
											}
										}
									}
								}
								JOINT RightHandIndex1
								{
									OFFSET -8.568993 -0.641953 3.120017
									CHANNELS 3 Xrotation Yrotation Zrotation
									JOINT RightHandIndex2
									{
										OFFSET -3.348518 0.000000 0.000000
										CHANNELS 3 Xrotation Yrotation Zrotation
										JOINT RightHandIndex3
										{
											OFFSET -3.314552 0.000000 0.000000
											CHANNELS 3 Xrotation Yrotation Zrotation
											End Site
											{
												OFFSET 1.032898 3.075478 0.678804
											}
										}
									}
								}
								JOINT RightHandMiddle1
								{
									OFFSET -8.124588 0.000000 0.000000
									CHANNELS 3 Xrotation Yrotation Zrotation
									JOINT RightHandMiddle2
									{
										OFFSET -4.166275 0.000000 0.000000
										CHANNELS 3 Xrotation Yrotation Zrotation
										JOINT RightHandMiddle3
										{
											OFFSET -3.018097 0.000000 0.000000
											CHANNELS 3 Xrotation Yrotation Zrotation
											End Site
											{
												OFFSET 1.032700 2.767937 0.617197
											}
										}
									}
								}
								JOINT RightHandRing1
								{
									OFFSET -8.571747 -0.031349 -2.884061
									CHANNELS 3 Xrotation Yrotation Zrotation
									JOINT RightHandRing2
									{
										OFFSET -3.671204 0.000000 0.000000
										CHANNELS 3 Xrotation Yrotation Zrotation
										JOINT RightHandRing3
										{
											OFFSET -2.728874 0.000000 0.000000
											CHANNELS 3 Xrotation Yrotation Zrotation
											End Site
											{
												OFFSET 0.815804 2.539261 0.577413
											}
										}
									}
								}
								JOINT RightHandPinky1
								{
									OFFSET -7.854561 -0.675247 -5.212970
									CHANNELS 3 Xrotation Yrotation Zrotation
									JOINT RightHandPinky2
									{
										OFFSET -3.068550 0.000000 0.000000
										CHANNELS 3 Xrotation Yrotation Zrotation
										JOINT RightHandPinky3
										{
											OFFSET -2.395981 0.000000 0.000000
											CHANNELS 3 Xrotation Yrotation Zrotation
											End Site
											{
												OFFSET 0.524605 2.267952 0.567413
											}
										}
									}
								}
							}
							JOINT RightSleeve
							{
								OFFSET -19.684753 -0.200165 0.476065
								CHANNELS 3 Xrotation Yrotation Zrotation
								End Site
								{
									OFFSET 0.031342 25.731255 -0.002917
								}
							}
						}
					}
				}
				JOINT Hood
				{
					OFFSET 0.369700 14.447800 -5.317800
					CHANNELS 3 Xrotation Yrotation Zrotation
					JOINT Hood1
					{
						OFFSET 0.001700 -5.553802 -5.895100
						CHANNELS 3 Xrotation Yrotation Zrotation
						JOINT Hood2
						{
							OFFSET -0.000200 -8.380501 0.763600
							CHANNELS 3 Xrotation Yrotation Zrotation
							End Site
							{
								OFFSET 0.000000 8.415215 0.000000
							}
						}
					}
				}
				JOINT Left_Breast
				{
					OFFSET 5.682500 3.120102 3.188800
					CHANNELS 3 Xrotation Yrotation Zrotation
					End Site
					{
						OFFSET 0.000000 10.528564 0.000000
					}
				}
				JOINT Right_Breast
				{
					OFFSET -4.947600 3.120102 3.185900
					CHANNELS 3 Xrotation Yrotation Zrotation
					End Site
					{
						OFFSET 0.000000 10.528564 0.000000
					}
				}
				JOINT Whistle
				{
					OFFSET 0.368200 11.471298 0.095400
					CHANNELS 3 Xrotation Yrotation Zrotation
					JOINT Whistle1
					{
						OFFSET -0.002000 -6.349899 7.479800
						CHANNELS 3 Xrotation Yrotation Zrotation
						JOINT Whistle2
						{
							OFFSET -0.001300 -8.217598 4.717600
							CHANNELS 3 Xrotation Yrotation Zrotation
							End Site
							{
								OFFSET 0.000000 9.475479 0.000000
							}
						}
					}
				}
			}
		}
		JOINT Belly
		{
			OFFSET 0.212400 1.593002 3.163700
			CHANNELS 3 Xrotation Yrotation Zrotation
			End Site
			{
				OFFSET 0.000000 7.496635 0.000000
			}
		}
	}
	JOINT FitGrandmaFacialAnim_Joint
	{
		OFFSET 1.150000 -86.211197 -1.220100
		CHANNELS 3 Xrotation Yrotation Zrotation
		End Site
		{
			OFFSET 0.000000 31.666618 0.000000
		}
	}
}
MOTION
Frames: 4
Frame Time: 0.016667
-1.320860 80.768341 1.159974 -6.082180 -42.982169 -3.906723 0.000000 0.000001 0.000000 -25.208987 5.911659 14.812075 35.320107 -14.812788 -0.216984 -7.713771 0.999710 -8.383504 -0.000000 -0.000000 0.000000 -0.000000 0.000002 0.000001 -0.000001 0.000000 -0.000000 1.507062 -14.970023 -15.165219 33.145945 -8.179595 -0.390454 -26.461374 -5.405245 18.537326 -0.000000 -0.000002 0.000000 -0.000003 -0.000002 0.000002 -0.000000 0.000000 -0.000001 5.841590 4.581913 -1.345291 11.835727 9.038086 -3.084131 11.835728 9.038084 -3.084132 -4.303053 -1.272934 0.206307 -6.271938 20.437784 -0.377164 0.000000 0.000000 0.000000 0.000000 0.000000 0.000000 0.000000 0.000000 0.000000 0.000000 0.000000 0.000000 0.000000 0.000000 0.000000 0.000000 0.000000 0.000000 0.000000 0.000000 0.000000 0.000000 0.000000 0.000000 0.000000 0.000000 0.000000 0.000000 0.000000 0.000000 0.000000 0.000000 0.000000 0.000000 0.000000 0.000000 0.000000 0.000000 0.000000 0.000000 0.000000 0.000000 0.000000 0.000000 0.000000 0.000000 0.000000 0.000000 0.000000 0.000000 0.000000 0.000000 0.000000 0.000000 0.000000 0.000000 0.000000 1.387437 -0.696990 -7.876280 -14.260101 2.393802 -63.277140 9.865057 -47.524900 5.927949 16.172812 0.916328 18.795301 9.163602 4.814115 -5.499034 -0.335382 0.032564 0.783657 -0.000002 -0.000000 0.000002 -0.902030 -6.980928 -3.808449 0.026601 0.806457 -16.418894 0.000000 0.000001 -0.000001 1.947546 9.681367 -14.539581 -0.461225 -1.564446 -21.881049 -0.000001 -0.000000 -0.000001 2.605805 14.896573 -31.345224 -0.570641 -2.704749 -32.012048 0.000004 0.000002 0.000001 4.171004 18.494926 -34.987412 -0.706823 -5.788636 -39.372902 -0.000001 0.000001 0.000004 -0.000001 0.000002 0.000001 1.410928 9.461508 9.792744 1.220043 -24.270708 60.532920 -6.660696 41.858387 8.043844 6.225265 12.322326 11.673268 -8.895789 -4.903188 -0.383705 7.903372 -19.189690 -2.856952 0.000000 0.000002 0.000002 -1.096332 -1.217217 4.525385 0.141702 -1.115741 16.942592 -0.000002 0.000000 0.000001 -0.670810 -2.905540 12.731481 -0.652517 1.804267 30.579508 -0.000001 0.000000 -0.000001 2.418894 -7.406061 21.762671 -0.995460 3.769844 37.430635 -0.000000 -0.000000 -0.000001 3.482213 -10.050686 24.322232 -1.467000 7.868285 41.092877 -0.000001 -0.000001 0.000003 -0.000000 0.000000 0.000001 0.000001 0.000002 -0.000001 0.000001 0.000002 -0.000001 0.000001 0.000002 -0.000001 0.000001 0.000002 -0.000001 0.000001 0.000002 -0.000001 0.000001 0.000002 -0.000001 0.000000 0.000001 0.000000 0.000000 0.000001 0.000000 -0.000000 -0.000003 0.000000 0.000000 0.000001 0.000000 
-1.320752 80.765213 1.165365 -6.055450 -43.060490 -3.882164 -0.000000 0.000004 0.000000 -25.208724 5.912047 14.795810 35.360613 -14.726491 -0.190688 -7.761171 1.008518 -8.402681 -0.000000 0.000001 -0.000000 -0.000001 -0.000002 -0.000000 -0.000001 0.000000 -0.000000 1.419253 -14.968681 -15.180673 33.183648 -8.106705 -0.450294 -26.470285 -5.409391 18.538902 0.000000 -0.000000 -0.000000 0.000002 -0.000001 -0.000001 0.000001 0.000000 -0.000000 5.836692 4.587212 -1.355243 11.826959 9.047786 -3.104679 11.826961 9.047797 -3.104677 -4.348298 -1.296190 0.185083 -6.207248 20.521771 -0.394173 -0.000000 0.000000 -0.000000 -0.000000 0.000000 -0.000000 -0.000000 0.000000 -0.000000 -0.000000 0.000000 -0.000000 -0.000000 0.000000 -0.000000 -0.000000 0.000000 -0.000000 -0.000000 0.000000 -0.000000 -0.000000 0.000000 -0.000000 -0.000000 0.000000 -0.000000 -0.000000 0.000000 -0.000000 -0.000000 0.000000 -0.000000 -0.000000 0.000000 -0.000000 -0.000000 0.000000 -0.000000 -0.000000 0.000000 -0.000000 -0.000000 0.000000 -0.000000 -0.000000 0.000000 -0.000000 -0.000000 0.000000 -0.000000 -0.000000 0.000000 -0.000000 -0.000000 0.000000 -0.000000 1.387392 -0.696823 -7.876270 -14.262256 2.393780 -63.250680 9.848926 -47.561028 5.920509 16.146009 0.904685 18.680733 9.281174 4.985908 -5.486665 -0.249593 0.224353 0.816302 0.000001 -0.000002 0.000003 -0.895021 -6.979118 -3.983057 0.019738 0.784215 -16.611455 0.000001 0.000001 0.000001 1.943543 9.666281 -14.728985 -0.467833 -1.583365 -22.065384 0.000004 -0.000001 0.000002 2.597679 14.883742 -31.520288 -0.579610 -2.719006 -32.210486 -0.000000 -0.000003 0.000003 4.160733 18.488407 -35.170475 -0.709449 -5.791683 -39.559257 0.000001 0.000002 0.000001 -0.000003 -0.000004 0.000003 1.398782 9.503312 9.802041 1.235467 -24.253390 60.503605 -6.635580 41.828618 8.061756 6.205720 12.287853 11.583857 -8.744222 -4.912952 -0.267401 7.890836 -19.193892 -2.875786 0.000000 0.000001 -0.000002 -1.094936 -1.224536 4.426563 0.143562 -1.121793 16.879887 -0.000002 -0.000000 0.000001 -0.667437 -2.920383 12.633013 -0.649443 1.799062 30.481881 -0.000000 0.000000 -0.000003 2.423720 -7.418809 21.676019 -0.988825 3.761202 37.329368 -0.000000 -0.000001 0.000001 3.489134 -10.065747 24.227646 -1.459262 7.863651 40.993621 -0.000003 -0.000001 0.000000 0.000003 -0.000000 -0.000000 -0.000001 0.000002 0.000000 -0.000001 0.000002 0.000000 -0.000001 0.000002 0.000000 -0.000001 0.000002 0.000000 -0.000001 0.000002 0.000000 -0.000001 0.000002 -0.000001 -0.000002 0.000002 -0.000000 -0.000002 0.000002 -0.000000 0.000000 -0.000002 0.000000 -0.000000 0.000004 0.000000 
-1.323112 80.770821 1.163873 -6.025394 -43.126706 -3.848412 0.000000 -0.000002 -0.000000 -25.189632 5.912938 14.769425 35.332490 -14.642881 -0.160974 -7.766407 1.013613 -8.445782 0.000000 0.000001 0.000000 0.000000 -0.000001 -0.000000 -0.000004 -0.000002 0.000001 1.353507 -14.958312 -15.185705 33.182565 -8.070665 -0.511171 -26.456722 -5.408840 18.548381 -0.000000 0.000002 0.000000 -0.000003 0.000001 -0.000000 0.000000 -0.000001 -0.000001 5.832923 4.584253 -1.363439 11.819971 9.041238 -3.121164 11.819974 9.041241 -3.121162 -4.387866 -1.297851 0.163177 -6.136317 20.653462 -0.443798 -0.000000 -0.000000 0.000000 -0.000000 -0.000000 0.000000 -0.000000 -0.000000 0.000000 -0.000000 -0.000000 0.000000 -0.000000 -0.000000 0.000000 -0.000000 -0.000000 0.000000 -0.000000 -0.000000 0.000000 -0.000000 -0.000000 0.000000 -0.000000 -0.000000 0.000000 -0.000000 -0.000000 0.000000 -0.000000 -0.000000 0.000000 -0.000000 -0.000000 0.000000 -0.000000 -0.000000 0.000000 -0.000000 -0.000000 0.000000 -0.000000 -0.000000 0.000000 -0.000000 -0.000000 0.000000 -0.000000 -0.000000 0.000000 -0.000000 -0.000000 0.000000 -0.000000 -0.000000 0.000000 1.389708 -0.709912 -7.876830 -14.244237 2.394029 -63.227239 9.904568 -47.573132 5.947264 16.178290 0.914626 18.773776 9.414851 5.159736 -5.469221 -0.170203 0.412540 0.856129 -0.000000 0.000002 -0.000000 -0.885484 -6.977788 -4.153091 0.012770 0.761540 -16.807774 -0.000000 -0.000001 0.000000 1.939542 9.651377 -14.916324 -0.474098 -1.601149 -22.238818 0.000003 -0.000000 -0.000002 2.589831 14.871390 -31.688844 -0.588514 -2.733055 -32.406037 0.000000 -0.000001 -0.000000 4.151043 18.482383 -35.342650 -0.711833 -5.794534 -39.734550 -0.000002 -0.000001 -0.000001 0.000002 -0.000000 0.000000 1.393261 9.523885 9.813712 1.197323 -24.211967 60.500709 -6.605018 41.712693 8.037610 6.258866 12.244940 11.498255 -8.538363 -4.895331 -0.106999 7.856104 -19.205505 -2.927876 -0.000002 0.000002 0.000000 -1.093471 -1.232161 4.323048 0.143910 -1.122955 16.867321 -0.000002 0.000001 -0.000000 -0.663455 -2.937929 12.524936 -0.646089 1.793336 30.374562 -0.000001 0.000002 -0.000001 2.430984 -7.439408 21.599215 -0.980314 3.750012 37.198928 -0.000001 0.000000 -0.000003 3.495820 -10.078047 24.121568 -1.450812 7.858623 40.884642 -0.000002 -0.000001 -0.000001 0.000002 0.000001 -0.000002 0.000000 0.000000 0.000000 0.000000 0.000000 0.000000 0.000000 0.000000 0.000000 0.000000 0.000000 0.000000 0.000000 0.000000 0.000000 0.000000 0.000000 -0.000001 0.000000 0.000001 -0.000000 0.000000 0.000001 -0.000000 0.000000 -0.000003 -0.000000 0.000000 -0.000002 -0.000000 
-1.324198 80.770554 1.167150 -5.975185 -43.199126 -3.803541 -0.000000 0.000003 0.000000 -25.202659 5.913444 14.756043 35.335383 -14.568124 -0.147290 -7.788534 1.019692 -8.473967 -0.000000 -0.000000 0.000000 -0.000000 -0.000001 -0.000000 -0.000001 0.000000 0.000000 1.260872 -14.941498 -15.197874 33.204487 -8.028634 -0.569268 -26.452240 -5.412973 18.561341 -0.000000 -0.000000 -0.000000 -0.000001 -0.000001 0.000002 -0.000000 -0.000001 -0.000001 5.827493 4.576990 -1.369252 11.809249 9.026345 -3.132222 11.809253 9.026340 -3.132223 -4.418640 -1.266527 0.119655 -6.071690 20.811248 -0.506487 -0.000000 -0.000000 -0.000000 -0.000000 -0.000000 -0.000000 -0.000000 -0.000000 -0.000000 -0.000000 -0.000000 -0.000000 -0.000000 -0.000000 -0.000000 -0.000000 -0.000000 -0.000000 -0.000000 -0.000000 -0.000000 -0.000000 -0.000000 -0.000000 -0.000000 -0.000000 -0.000000 -0.000000 -0.000000 -0.000000 -0.000000 -0.000000 -0.000000 -0.000000 -0.000000 -0.000000 -0.000000 -0.000000 -0.000000 -0.000000 -0.000000 -0.000000 -0.000000 -0.000000 -0.000000 -0.000000 -0.000000 -0.000000 -0.000000 -0.000000 -0.000000 -0.000000 -0.000000 -0.000000 -0.000000 -0.000000 -0.000000 1.389214 -0.712564 -7.883960 -14.233987 2.393107 -63.219220 9.867912 -47.596306 5.922680 16.138895 0.892862 18.667021 9.527669 5.320427 -5.444991 -0.082366 0.613058 0.892559 0.000002 0.000002 0.000002 -0.878605 -6.976113 -4.318732 0.006559 0.741420 -16.982085 0.000001 0.000002 -0.000001 1.935613 9.636929 -15.098085 -0.480068 -1.617970 -22.403396 0.000006 0.000000 0.000000 2.581121 14.857808 -31.874727 -0.595906 -2.743319 -32.579500 -0.000000 0.000000 0.000000 4.139478 18.469588 -35.515624 -0.714237 -5.797220 -39.900070 -0.000001 0.000000 0.000001 -0.000002 -0.000002 -0.000001 1.393276 9.550950 9.804896 1.182790 -24.200774 60.514370 -6.580806 41.627271 8.001252 6.320968 12.185657 11.442678 -8.394748 -4.917740 0.003172 7.849042 -19.207865 -2.938472 0.000001 0.000001 0.000001 -1.091899 -1.240396 4.212038 0.146036 -1.129850 16.796163 -0.000001 -0.000000 -0.000001 -0.661696 -2.945910 12.408761 -0.642760 1.787654 30.268110 -0.000000 0.000000 -0.000001 2.436789 -7.454686 21.485137 -0.971951 3.739006 37.070657 0.000001 0.000001 0.000003 3.502978 -10.091392 24.007350 -1.441681 7.853050 40.767121 -0.000002 -0.000001 0.000000 -0.000000 -0.000001 0.000000 -0.000000 0.000001 -0.000000 -0.000000 0.000001 -0.000000 -0.000000 0.000001 -0.000000 -0.000000 0.000001 -0.000000 -0.000000 0.000001 -0.000000 -0.000000 0.000001 0.000000 -0.000000 0.000001 0.000001 -0.000000 0.000001 0.000001 -0.000000 -0.000001 -0.000000 -0.000000 0.000003 0.000000 
